<svg width="60" height="32" viewBox="0 0 60 32" fill="none" xmlns="http://www.w3.org/2000/svg">
  <rect width="60" height="32" rx="4" fill="white"/>
  <path d="M27.1 11.2L24.4 20.8H22L24.7 11.2H27.1ZM35.8 18.7L37.2 14.8L38 18.7H35.8ZM38.5 20.8H40.7L38.8 11.2H36.8C36.3 11.2 35.9 11.5 35.7 11.9L32.3 20.8H34.7L35.2 19.5H38.2L38.5 20.8ZM32 18.6C32 16.3 28.9 16.2 28.9 15.1C28.9 14.7 29.3 14.3 30.1 14.2C30.5 14.2 31.5 14.3 32.3 14.7L32.7 12.7C32.2 12.5 31.4 12.3 30.5 12.3C28.2 12.3 26.6 13.5 26.6 15.2C26.6 16.5 27.8 17.2 28.7 17.6C29.6 18 29.9 18.3 29.9 18.6C29.9 19.1 29.3 19.3 28.7 19.3C27.8 19.3 27.3 19.1 26.5 18.7L26.1 20.7C26.7 21 27.7 21.2 28.7 21.2C31.2 21.2 32.7 20.1 32.7 18.2L32 18.6ZM21.5 11.2L17.6 20.8H15.1L13.2 13.7C13.1 13.3 12.9 13.1 12.6 13C11.9 12.6 10.8 12.3 9.8 12.1L9.9 11.2H14C14.6 11.2 15.1 11.6 15.2 12.3L16.3 18L18.7 11.2H21.5Z" fill="#1A1F71"/>
</svg>
